# xmcd
#
# Track frame offsets:
#	150
#	11519
#	23393
#	35321
#	49106
#	63036
#	77477
#	91667
#	105013
#	119166
#	131114
#	142973
#	156620
#	169201
#	181592
#	196162
#	209192
#
# Disc length: 2991 seconds
#
# Revision: 1
# Processed by: cddbd v1.5.1PL0 Copyright (c) Steve Scherf et al.
# Submitted via: audiograbber 1.83.01
#
DISCID=d50bad11
DTITLE=Ray Charles - Can anyone ask for more? CD 2
DYEAR=2004
DGENRE=Soul
TTITLE0=She's on the ball
TTITLE1=If I give you my love
TTITLE2=Can't you see Darling
TTITLE3=This love of mine
TTITLE4=Late in the evening Blues
TTITLE5=Someday
TTITLE6=Someday (alternate take)
TTITLE7=Baby won't you please come home
TTITLE8=Kiss me baby
TTITLE9=The sun's gonna shine again
TTITLE10=Roll with my baby
TTITLE11=The midnight hour
TTITLE12=Jumpin' in the morning
TTITLE13=It should have been me
TTITLE14=Losing hand
TTITLE15=Heartbraker
TTITLE16=Sinner's Prayer
EXTD=
EXTT0=
EXTT1=
EXTT2=
EXTT3=
EXTT4=
EXTT5=
EXTT6=
EXTT7=
EXTT8=
EXTT9=
EXTT10=
EXTT11=
EXTT12=
EXTT13=
EXTT14=
EXTT15=
EXTT16=
PLAYORDER=
